<svg width="24" height="14" viewBox="0 0 24 14" fill="none" xmlns="http://www.w3.org/2000/svg">
<path fill-rule="evenodd" clip-rule="evenodd" d="M21.3625 9.61805C21.3625 9.61805 23.3029 11.5344 23.7829 12.4212C23.7922 12.4339 23.7995 12.4481 23.8045 12.4632C24.0001 12.7908 24.0481 13.0476 23.9521 13.2372C23.7901 13.5504 23.2417 13.7077 23.0557 13.7208H19.6261C19.3873 13.7208 18.8905 13.6585 18.2857 13.2409C17.8237 12.9181 17.3641 12.3864 16.9189 11.8668C16.2541 11.0953 15.6793 10.4256 15.0973 10.4256C15.0238 10.4254 14.9508 10.4376 14.8813 10.4616C14.4409 10.6008 13.8817 11.2284 13.8817 12.9C13.8817 13.4232 13.4689 13.7208 13.1797 13.7208H11.6089C11.0737 13.7208 8.28731 13.5336 5.81651 10.9284C2.78891 7.73885 0.0697081 1.3404 0.0433081 1.284C-0.125892 0.87 0.229308 0.6444 0.613308 0.6444H4.07651C4.54091 0.6444 4.69211 0.9252 4.79771 1.1772C4.92011 1.4664 5.37371 2.6232 6.11771 3.92275C7.32251 6.03715 8.06291 6.89765 8.65451 6.89765C8.76561 6.89795 8.87491 6.86895 8.97131 6.81365C9.74411 6.38885 9.60011 3.62875 9.56411 3.05995C9.56411 2.94955 9.56291 1.8276 9.16691 1.2852C8.88371 0.896401 8.4013 0.7452 8.1097 0.69C8.1877 0.5772 8.3533 0.4044 8.5657 0.3024C9.0949 0.0384001 10.0513 0 11.0005 0H11.5273C12.5569 0.0144 12.8233 0.0804 13.1977 0.1752C13.9513 0.3552 13.9657 0.8436 13.8997 2.5068C13.8805 2.98195 13.8601 3.51715 13.8601 4.14715C13.8601 4.28155 13.8541 4.43155 13.8541 4.58395C13.8313 5.43715 13.8013 6.39845 14.4037 6.79325C14.4818 6.84185 14.572 6.86765 14.6641 6.86755C14.8729 6.86755 15.4981 6.86755 17.1937 3.95755C17.9377 2.6724 18.5137 1.1568 18.5533 1.0428C18.5869 0.9792 18.6877 0.8004 18.8101 0.7284C18.8972 0.68207 18.9947 0.65893 19.0933 0.6612H23.1673C23.6113 0.6612 23.9125 0.7284 23.9713 0.8964C24.0697 1.1688 23.9521 2.0004 22.0921 4.51555C21.7789 4.93435 21.5041 5.29685 21.2629 5.61365C19.5769 7.82645 19.5769 7.93805 21.3625 9.61805Z" fill="white"/>
</svg>
